<svg xmlns="http://www.w3.org/2000/svg" viewBox="0 0 420 260" role="img" aria-labelledby="title desc">
  <title id="title">Driver trust card</title>
  <desc id="desc">Driver profile, rating stars, and verified badge artwork.</desc>
  <rect width="420" height="260" rx="24" fill="#fff"/>
  <rect x="24" y="26" width="372" height="208" rx="20" fill="#f5f6f8"/>
  <circle cx="116" cy="112" r="42" fill="#111"/>
  <circle cx="116" cy="99" r="18" fill="#ffdf32"/>
  <path d="M78 166c9-27 67-27 76 0" fill="#ffdf32"/>
  <rect x="184" y="72" width="130" height="16" rx="8" fill="#111"/>
  <rect x="184" y="104" width="170" height="12" rx="6" fill="#d9dde3"/>
  <rect x="184" y="130" width="112" height="12" rx="6" fill="#d9dde3"/>
  <g transform="translate(184 166)" fill="#ffdf32">
    <path d="M10 0l3 7h8l-6 5 2 8-7-4-7 4 2-8-6-5h8l3-7Z"/>
    <path d="M42 0l3 7h8l-6 5 2 8-7-4-7 4 2-8-6-5h8l3-7Z"/>
    <path d="M74 0l3 7h8l-6 5 2 8-7-4-7 4 2-8-6-5h8l3-7Z"/>
    <path d="M106 0l3 7h8l-6 5 2 8-7-4-7 4 2-8-6-5h8l3-7Z"/>
    <path d="M138 0l3 7h8l-6 5 2 8-7-4-7 4 2-8-6-5h8l3-7Z"/>
  </g>
  <g transform="translate(320 154)">
    <circle cx="38" cy="38" r="32" fill="#16895f"/>
    <path d="M23 38l10 11 20-24" fill="none" stroke="#fff" stroke-width="8" stroke-linecap="round" stroke-linejoin="round"/>
  </g>
</svg>
